<?xml version="1.0" standalone="no"?>
<!DOCTYPE svg PUBLIC "-//W3C//DTD SVG 20010904//EN"
 "http://www.w3.org/TR/2001/REC-SVG-20010904/DTD/svg10.dtd">
<svg version="1.0" xmlns="http://www.w3.org/2000/svg"
 width="512.000000pt" height="512.000000pt" viewBox="0 0 512.000000 512.000000"
 preserveAspectRatio="xMidYMid meet">
<metadata>
Created by potrace 1.14, written by Peter Selinger 2001-2017
</metadata>
<g transform="translate(0.000000,512.000000) scale(0.100000,-0.100000)"
fill="#000000" stroke="none">
<path d="M386 5104 c-176 -43 -329 -196 -371 -375 -13 -56 -15 -327 -15 -2169
0 -2316 -4 -2169 61 -2291 40 -74 134 -168 208 -208 122 -65 -25 -61 2291 -61
2316 0 2169 -4 2291 61 74 40 168 134 208 208 65 122 61 -25 61 2291 0 1842
-2 2113 -15 2169 -43 181 -195 333 -376 376 -94 22 -4251 21 -4343 -1z m2591
-884 c452 -7 536 -11 562 -25 37 -18 48 -55 34 -104 -13 -42 -84 -210 -112
-261 -25 -48 -108 -97 -178 -106 -30 -3 -291 -5 -580 -3 l-525 4 -28 -135
c-33 -155 -62 -267 -132 -503 -27 -93 -47 -172 -43 -175 3 -3 180 -9 393 -13
213 -4 397 -8 410 -8 31 -1 62 -36 62 -69 0 -42 -75 -291 -97 -320 -11 -14
-31 -35 -46 -46 -26 -19 -33 -19 -319 -7 -161 6 -342 14 -403 17 -60 3 -116 1
-123 -4 -28 -20 -150 -540 -196 -842 -14 -91 -31 -244 -37 -340 -6 -96 -15
-191 -20 -211 -29 -115 -163 -177 -401 -186 -192 -8 -208 5 -229 184 -32 270
17 677 141 1171 l38 153 -26 -5 c-15 -3 -72 -10 -127 -15 -294 -29 -325 -26
-325 31 0 128 185 272 470 367 l115 38 18 59 c58 194 177 541 232 681 36 89
65 166 65 171 0 13 -151 -6 -255 -33 -104 -26 -234 -83 -320 -140 -30 -21
-110 -86 -175 -146 -132 -119 -157 -130 -199 -85 -50 53 -63 162 -33 277 85
323 568 572 1222 629 149 13 271 16 480 12 85 -1 394 -6 687 -12z m1262 -1180
c146 -40 244 -123 291 -247 31 -79 31 -229 1 -324 -49 -155 -199 -309 -368
-378 -18 -7 -33 -16 -33 -18 0 -3 27 -34 59 -69 214 -228 283 -367 267 -534
-26 -280 -211 -458 -556 -535 -117 -26 -441 -32 -570 -11 -273 46 -453 163
-543 354 -60 128 -45 316 38 487 76 155 154 225 252 225 82 0 99 -24 175 -234
57 -159 86 -214 153 -282 66 -67 123 -100 230 -133 60 -19 253 -45 264 -36 1
2 -5 26 -14 54 -30 90 -107 191 -293 383 -327 338 -380 435 -370 679 4 88 11
131 30 186 29 83 98 190 160 250 92 90 271 176 422 203 91 16 311 5 405 -20z"/>
<path d="M3915 2689 c-33 -5 -82 -14 -110 -22 -45 -12 -50 -16 -53 -45 -6 -61
74 -219 159 -315 l45 -51 58 70 c101 123 136 224 99 293 -35 66 -89 85 -198
70z"/>
</g>
</svg>
